<svg width="24" height="24" viewBox="0 0 24 24" fill="none" xmlns="http://www.w3.org/2000/svg">
<path opacity="0.6" d="M12 22C17.5 22 22 17.5 22 12C22 6.5 17.5 2 12 2C6.5 2 2 6.5 2 12C2 17.5 6.5 22 12 22Z" stroke="#3183E3" stroke-width="2" stroke-linecap="round"/>
<path fill-rule="evenodd" clip-rule="evenodd" d="M10.9941 8C10.9941 7.44772 11.4419 7 11.9941 7H12.0031C12.5554 7 13.0031 7.44772 13.0031 8C13.0031 8.55228 12.5554 9 12.0031 9H11.9941C11.4419 9 10.9941 8.55228 10.9941 8Z" fill="#3183E3"/>
<path fill-rule="evenodd" clip-rule="evenodd" d="M11.9941 10C12.5464 10 12.9941 10.4477 12.9941 11V16C12.9941 16.5523 12.5464 17 11.9941 17C11.4419 17 10.9941 16.5523 10.9941 16V11C10.9941 10.4477 11.4419 10 11.9941 10Z" fill="#3183E3"/>
</svg>
